<?xml version="1.0" encoding="iso-8859-1"?>
<!-- Generator: Adobe Illustrator 19.0.0, SVG Export Plug-In . SVG Version: 6.00 Build 0)  -->
<svg version="1.1" id="Layer_1" xmlns="http://www.w3.org/2000/svg" xmlns:xlink="http://www.w3.org/1999/xlink" x="0px" y="0px"
	 viewBox="0 0 512 512" style="enable-background:new 0 0 512 512;" xml:space="preserve">
<polygon style="fill:#DFDFE1;" points="341.333,0 56.889,0 56.889,512 455.111,512 455.111,113.778 "/>
<polygon style="fill:#CFCDD2;" points="341.333,113.778 341.333,0 256,0 256,512 455.111,512 455.111,113.778 "/>
<circle style="fill:#98C8ED;" cx="279.324" cy="285.81" r="85.333"/>
<path style="fill:#7AB9E8;" d="M339.661,225.471l-120.68,120.68c33.326,33.326,87.354,33.326,120.68,0
	C372.985,312.826,372.985,258.796,339.661,225.471z"/>
<path style="fill:#88888F;" d="M384,287.798c-0.001-58.816-47.852-106.667-106.668-106.667
	c-58.815-0.001-106.665,47.849-106.667,106.667c0,21.709,6.534,41.913,17.718,58.779l-72.819,72.819l30.17,30.17l72.818-72.819
	c16.868,11.183,37.072,17.718,58.779,17.717C336.149,394.465,384,346.614,384,287.798z M277.332,351.798
	c-35.288,0.001-63.999-28.71-64-63.999c0.001-35.29,28.712-64.001,64-64.001c35.291,0.001,64.001,28.712,64,64
	C341.333,323.088,312.623,351.798,277.332,351.798z"/>
<path style="fill:#56545A;" d="M384,287.798c-0.001-29.409-11.964-56.074-31.277-75.391l-30.157,30.157
	c11.588,11.588,18.766,27.588,18.766,45.234c0.001,35.29-28.709,64.001-64,64c-17.644,0-33.644-7.177-45.234-18.766l-101.45,101.45
	l15.086,15.086l72.818-72.819c16.868,11.183,37.072,17.718,58.779,17.717C336.149,394.465,384,346.614,384,287.798z"/>
<g>
</g>
<g>
</g>
<g>
</g>
<g>
</g>
<g>
</g>
<g>
</g>
<g>
</g>
<g>
</g>
<g>
</g>
<g>
</g>
<g>
</g>
<g>
</g>
<g>
</g>
<g>
</g>
<g>
</g>
</svg>
